<?xml version="1.0" standalone="no"?>
<!DOCTYPE svg PUBLIC "-//W3C//DTD SVG 20010904//EN"
 "http://www.w3.org/TR/2001/REC-SVG-20010904/DTD/svg10.dtd">
<svg version="1.0" xmlns="http://www.w3.org/2000/svg"
 width="2400.000000pt" height="2400.000000pt" viewBox="0 0 2400.000000 2400.000000"
 preserveAspectRatio="xMidYMid meet">
<metadata>
Created by potrace 1.14, written by Peter Selinger 2001-2017
</metadata>
<g transform="translate(0.000000,2400.000000) scale(0.100000,-0.100000)"
fill="#000000" stroke="none">
<path d="M3631 13588 c-10 -24 -150 -338 -311 -698 -160 -360 -465 -1044 -677
-1520 -212 -476 -407 -914 -434 -973 -27 -60 -49 -111 -49 -113 0 -2 178 -3
397 -2 l396 3 148 355 148 355 776 0 777 0 100 -240 c54 -132 121 -292 147
-355 l48 -115 407 -3 406 -2 -14 32 c-7 18 -100 227 -206 463 -106 237 -236
529 -290 650 -54 121 -109 245 -123 275 -94 207 -215 477 -242 540 -18 41 -44
100 -58 130 -13 30 -34 75 -45 100 -30 67 -222 498 -281 630 -29 63 -62 137
-74 165 -12 27 -54 119 -92 205 l-71 155 -382 3 -383 2 -18 -42z m436 -818
c17 -41 80 -194 141 -340 227 -549 342 -828 342 -834 0 -3 -237 -6 -526 -6
-497 0 -526 1 -520 18 47 127 522 1250 526 1245 4 -5 21 -42 37 -83z"/>
<path d="M6260 11955 l0 -1675 365 0 365 0 1 978 c0 654 3 972 10 962 9 -13
204 -333 639 -1050 65 -107 165 -271 222 -365 l103 -170 175 0 175 0 206 345
c207 347 591 992 710 1193 l64 107 3 -52 c1 -29 3 -478 5 -998 l2 -945 364 -3
364 -2 -6 1672 c-3 920 -6 1674 -7 1676 0 1 -141 2 -314 2 -239 0 -316 -3
-324 -12 -5 -7 -39 -62 -74 -123 -36 -60 -231 -389 -433 -730 -459 -773 -506
-852 -624 -1052 -52 -90 -98 -159 -102 -155 -3 4 -146 239 -316 522 -171 283
-450 747 -621 1030 l-310 515 -321 3 -321 2 0 -1675z"/>
<path d="M10828 12383 l-3 -1248 -227 -3 -228 -2 0 -445 0 -445 5730 0 5730 0
0 445 0 445 -635 0 -635 0 0 171 0 171 239 396 c131 219 419 697 640 1065 221
367 404 674 407 682 5 13 -42 15 -370 15 l-376 0 -25 -40 c-14 -23 -163 -269
-332 -548 -168 -279 -358 -594 -421 -699 -64 -106 -119 -193 -122 -193 -3 0
-205 333 -449 740 l-444 740 -1814 -2 -1814 -3 0 -310 1 -310 532 -5 533 -5 0
-930 0 -930 -742 -3 -743 -2 0 1250 0 1250 -387 -2 -388 -3 -3 -1247 -2 -1248
-290 0 -290 0 0 53 c0 83 -19 210 -43 296 -35 119 -98 222 -197 321 -91 91
-150 131 -276 185 -44 19 -79 37 -79 39 0 3 29 24 65 47 101 65 207 180 262
285 74 141 93 221 92 394 0 158 -12 222 -64 336 -40 88 -83 148 -164 227 -158
155 -373 248 -680 294 -96 14 -237 17 -1048 20 l-938 4 -2 -1248z m8366 67
l586 -975 0 -172 0 -173 -1130 0 -1130 0 0 935 0 935 535 0 535 0 0 222 c0
133 4 218 9 213 5 -6 273 -449 595 -985z m-6604 575 c89 -19 208 -74 259 -121
126 -113 134 -360 17 -491 -51 -57 -134 -104 -222 -127 -103 -27 -274 -36
-666 -36 l-378 0 0 401 0 402 458 -6 c366 -4 472 -9 532 -22z m182 -1362 c159
-45 258 -115 308 -218 21 -44 24 -64 25 -165 0 -63 -3 -123 -7 -132 -7 -17
-52 -18 -753 -18 l-745 0 0 281 0 280 548 -3 c524 -4 550 -5 624 -25z"/>
</g>
</svg>
